<svg width="12" height="25" viewBox="0 0 12 25" fill="none" xmlns="http://www.w3.org/2000/svg">
<path d="M8.00621 8.04689V5.9809C8.00621 5.67075 8.02048 5.43052 8.04948 5.26083C8.07837 5.09087 8.14411 4.92372 8.24614 4.75871C8.34801 4.5938 8.51296 4.47996 8.74076 4.41687C8.96886 4.35368 9.27197 4.32218 9.6504 4.32218L11.7163 4.32218L11.7163 0.190308L8.41359 0.190308C6.50258 0.190308 5.13006 0.643703 4.29584 1.55049C3.46171 2.45749 3.04471 3.79347 3.04471 5.55894L3.04471 8.04684L0.570984 8.04684L0.570984 12.179L3.04455 12.179L3.04455 24.1678L8.00616 24.1678L8.00616 12.1791L11.3087 12.1791L11.7452 8.04689L8.00621 8.04689Z" fill="#1F1F1F"/>
</svg>
