<svg width="6" height="12" viewBox="0 0 6 12" fill="none" xmlns="http://www.w3.org/2000/svg">
<path d="M1.79102 8.24512V7.87598C1.79102 7.34277 1.87305 6.90527 2.03711 6.56348C2.20117 6.21712 2.50651 5.85254 2.95312 5.46973C3.57292 4.94564 3.96257 4.55143 4.12207 4.28711C4.28613 4.02279 4.36816 3.70378 4.36816 3.33008C4.36816 2.86523 4.21777 2.50749 3.91699 2.25684C3.62077 2.00163 3.19238 1.87402 2.63184 1.87402C2.27181 1.87402 1.9209 1.91732 1.5791 2.00391C1.2373 2.08594 0.845378 2.23861 0.40332 2.46191L0 1.53906C0.861328 1.08789 1.76139 0.862305 2.7002 0.862305C3.57064 0.862305 4.2474 1.0765 4.73047 1.50488C5.21354 1.93327 5.45508 2.53711 5.45508 3.31641C5.45508 3.64909 5.40951 3.94303 5.31836 4.19824C5.23177 4.44889 5.10189 4.68815 4.92871 4.91602C4.75553 5.13932 4.38184 5.50163 3.80762 6.00293C3.34733 6.39486 3.04199 6.7207 2.8916 6.98047C2.74577 7.24023 2.67285 7.58659 2.67285 8.01953V8.24512H1.79102ZM1.45605 10.2754C1.45605 9.6556 1.72949 9.3457 2.27637 9.3457C2.54069 9.3457 2.74349 9.42546 2.88477 9.58496C3.0306 9.74447 3.10352 9.97461 3.10352 10.2754C3.10352 10.5671 3.0306 10.7949 2.88477 10.959C2.73893 11.1185 2.53613 11.1982 2.27637 11.1982C2.03939 11.1982 1.84342 11.1276 1.68848 10.9863C1.53353 10.8405 1.45605 10.6035 1.45605 10.2754Z" fill="#2A3749"/>
</svg>
