<svg width="18" height="17" viewBox="0 0 18 17" fill="none" xmlns="http://www.w3.org/2000/svg">
<path d="M18 10.4192L18 16.9959L14.1414 16.9959L14.1414 10.8618C14.1414 9.31898 13.5847 8.26837 12.1869 8.26837C11.1197 8.26837 10.4878 8.97567 10.2074 9.66229C10.107 9.90633 10.0777 10.2496 10.0777 10.5929L10.0777 17L6.21902 17C6.21902 17 6.26924 6.6056 6.21902 5.53017L10.0777 5.53017L10.0777 7.15572C10.0693 7.16813 10.0609 7.18054 10.0525 7.19294H10.0777V7.15572C10.5924 6.37397 11.5048 5.26131 13.5555 5.26131C16.0958 5.25718 18 6.89927 18 10.4192ZM2.18461 0C0.862125 0 0 0.856204 0 1.98127C0 3.08151 0.837015 3.96253 2.13439 3.96253H2.1595C3.50709 3.96253 4.34411 3.08151 4.34411 1.98127C4.31481 0.856204 3.50291 0 2.18461 0ZM0.230179 17L4.08882 17L4.08882 5.52603L0.230179 5.52603L0.230179 17Z" fill="#1F1F1F"/>
</svg>
