<svg width="189" height="21" viewBox="0 0 189 21" fill="none" xmlns="http://www.w3.org/2000/svg">
<path fill-rule="evenodd" clip-rule="evenodd" d="M167.284 1.25C167.284 0.559644 166.724 0 166.034 0C165.343 0 164.784 0.559644 164.784 1.25V6.05767C164.783 6.07578 164.783 6.09384 164.784 6.11185V15.7515C164.784 16.4419 165.343 17.0015 166.034 17.0015C166.724 17.0015 167.284 16.4419 167.284 15.7515V6.2377L167.456 5.54977C167.762 4.32556 168.862 3.46674 170.123 3.46674H173.768C174.458 3.46674 175.018 2.9071 175.018 2.21674C175.018 1.52638 174.458 0.96674 173.768 0.96674H170.123C169.088 0.96674 168.109 1.2698 167.284 1.80105V1.25ZM38.5393 1.78925C38.5393 1.09889 39.0989 0.539246 39.7893 0.539246H50.3241C52.6713 0.539246 54.5741 2.44204 54.5741 4.78925V11.506C54.5741 13.8532 52.6713 15.756 50.3241 15.756H41.0393V19.1911C41.0393 19.8815 40.4797 20.4411 39.7893 20.4411C39.0989 20.4411 38.5393 19.8815 38.5393 19.1911V14.506V5.65632C38.5393 4.96597 39.0989 4.40632 39.7893 4.40632C40.4797 4.40632 41.0393 4.96597 41.0393 5.65632V13.256H50.3241C51.2906 13.256 52.0741 12.4725 52.0741 11.506V4.78925C52.0741 3.82275 51.2906 3.03925 50.3241 3.03925H39.7893C39.0989 3.03925 38.5393 2.4796 38.5393 1.78925ZM0 1.92662C0 1.23626 0.559644 0.67662 1.25 0.67662H8.01739C12.4453 0.67662 16.0348 4.26613 16.0348 8.69401C16.0348 13.1219 12.4453 16.7114 8.01738 16.7114H1.25C0.559644 16.7114 0 16.1517 0 15.4614V5.7937C0 5.10334 0.559644 4.5437 1.25 4.5437C1.94036 4.5437 2.5 5.10334 2.5 5.7937V14.2114H8.01738C11.0646 14.2114 13.5348 11.7412 13.5348 8.69401C13.5348 5.64684 11.0646 3.17662 8.01739 3.17662H1.25C0.559644 3.17662 0 2.61698 0 1.92662ZM59.2562 0.67662C58.5658 0.67662 58.0062 1.23626 58.0062 1.92662C58.0062 2.61698 58.5658 3.17662 59.2562 3.17662H69.791C70.7575 3.17662 71.541 3.96012 71.541 4.92662V11.6434C71.541 12.6099 70.7574 13.3934 69.791 13.3934H60.5062V5.7937C60.5062 5.10334 59.9465 4.5437 59.2562 4.5437C58.5658 4.5437 58.0062 5.10334 58.0062 5.7937V14.6434V19.3285C58.0062 20.0188 58.5658 20.5785 59.2562 20.5785C59.9465 20.5785 60.5062 20.0188 60.5062 19.3285V15.8934H69.791C72.1382 15.8934 74.041 13.9906 74.041 11.6434V4.92662C74.041 2.57941 72.1382 0.67662 69.791 0.67662H59.2562ZM124.856 1.92662C124.856 1.23626 125.415 0.67662 126.106 0.67662H136.641C138.988 0.67662 140.891 2.57941 140.891 4.92662V11.6434C140.891 13.9906 138.988 15.8934 136.641 15.8934H127.356V19.3285C127.356 20.0188 126.796 20.5785 126.106 20.5785C125.415 20.5785 124.856 20.0188 124.856 19.3285V14.6434V5.7937C124.856 5.10334 125.415 4.5437 126.106 4.5437C126.796 4.5437 127.356 5.10334 127.356 5.7937V13.3934H136.641C137.607 13.3934 138.391 12.6099 138.391 11.6434V4.92662C138.391 3.96012 137.607 3.17662 136.641 3.17662H126.106C125.415 3.17662 124.856 2.61698 124.856 1.92662ZM21.8355 4.92662C21.8355 3.96012 22.619 3.17662 23.5855 3.17662H32.1203C32.5345 3.17662 32.8703 3.51241 32.8703 3.92662V13.4614C32.8703 13.8756 32.5345 14.2114 32.1203 14.2114H23.5855C22.619 14.2114 21.8355 13.4279 21.8355 12.4614V4.92662ZM23.5855 0.67662C21.2383 0.67662 19.3355 2.57941 19.3355 4.92662V12.4614C19.3355 14.8086 21.2383 16.7114 23.5855 16.7114H32.1203C32.5635 16.7114 32.9861 16.6227 33.3711 16.462C33.5799 16.6186 33.8393 16.7114 34.1204 16.7114C34.8108 16.7114 35.3704 16.1517 35.3704 15.4614V1.92662C35.3704 1.23626 34.8108 0.67662 34.1204 0.67662C33.8393 0.67662 33.5799 0.769409 33.3711 0.926032C32.9861 0.765355 32.5635 0.67662 32.1203 0.67662H23.5855ZM90.4351 3.17662C89.4686 3.17662 88.6851 3.96012 88.6851 4.92662V12.4614C88.6851 13.4279 89.4686 14.2114 90.4351 14.2114H100.97C101.66 14.2114 102.22 14.771 102.22 15.4614C102.22 16.1517 101.66 16.7114 100.97 16.7114H90.4351C88.0879 16.7114 86.1851 14.8086 86.1851 12.4614V4.92662C86.1851 2.57941 88.0879 0.67662 90.4351 0.67662H98.9699C100.765 0.67662 102.22 2.13169 102.22 3.92662V7.66078C102.22 9.4557 100.765 10.9108 98.9699 10.9108H93.2357C92.5454 10.9108 91.9857 10.3511 91.9857 9.66078C91.9857 8.97042 92.5454 8.41078 93.2357 8.41078H98.9699C99.3841 8.41078 99.7199 8.07499 99.7199 7.66078V3.92662C99.7199 3.51241 99.3841 3.17662 98.9699 3.17662H90.4351ZM146.691 4.92662C146.691 3.96012 147.475 3.17662 148.441 3.17662H156.976C157.39 3.17662 157.726 3.51241 157.726 3.92662V7.66078C157.726 8.07499 157.39 8.41078 156.976 8.41078H151.242C150.552 8.41078 149.992 8.97042 149.992 9.66078C149.992 10.3511 150.552 10.9108 151.242 10.9108H156.976C158.771 10.9108 160.226 9.4557 160.226 7.66078V3.92662C160.226 2.13169 158.771 0.67662 156.976 0.67662H148.441C146.094 0.67662 144.191 2.57941 144.191 4.92662V12.4614C144.191 14.8086 146.094 16.7114 148.441 16.7114H158.976C159.666 16.7114 160.226 16.1517 160.226 15.4614C160.226 14.771 159.666 14.2114 158.976 14.2114H148.441C147.475 14.2114 146.691 13.4279 146.691 12.4614V4.92662ZM118.372 0.676613C117.681 0.676613 117.122 1.23626 117.122 1.92661V5.58319C117.122 5.9019 116.92 6.1858 116.619 6.29108L113.538 7.36963L110.456 6.29108C110.155 6.1858 109.954 5.9019 109.954 5.58319V1.92661C109.954 1.23626 109.394 0.676613 108.704 0.676613C108.014 0.676613 107.454 1.23626 107.454 1.92661V5.58319C107.454 6.96426 108.327 8.19449 109.63 8.65073L109.754 8.69398L109.63 8.73727C108.327 9.1935 107.454 10.4237 107.454 11.8048V15.4614C107.454 16.1517 108.014 16.7114 108.704 16.7114C109.394 16.7114 109.954 16.1517 109.954 15.4614V11.8048C109.954 11.4861 110.155 11.2022 110.456 11.0969L113.538 10.0183L116.619 11.0969C116.92 11.2022 117.122 11.4861 117.122 11.8048V15.4614C117.122 16.1517 117.681 16.7114 118.372 16.7114C119.062 16.7114 119.622 16.1517 119.622 15.4614V11.8048C119.622 10.4237 118.749 9.1935 117.445 8.73727L117.322 8.69398L117.445 8.65073C118.749 8.19449 119.622 6.96426 119.622 5.58319V1.92661C119.622 1.23626 119.062 0.676613 118.372 0.676613ZM182.549 0C183.239 0 183.799 0.559644 183.799 1.25V2.92153H185.47C186.16 2.92153 186.72 3.48117 186.72 4.17153C186.72 4.86188 186.16 5.42153 185.47 5.42153H183.799V13.8576C183.799 14.2719 184.134 14.6076 184.549 14.6076H186.931C187.621 14.6076 188.181 15.1673 188.181 15.8576C188.181 16.548 187.621 17.1076 186.931 17.1076H184.549C182.754 17.1076 181.299 15.6526 181.299 13.8576V5.42153H179.627C178.937 5.42153 178.377 4.86188 178.377 4.17153C178.377 3.48117 178.937 2.92153 179.627 2.92153H181.299V1.25C181.299 0.559644 181.858 0 182.549 0Z" fill="url(#paint0_linear)"/>
<defs>
<linearGradient id="paint0_linear" x1="175.851" y1="9.66121" x2="-0.671739" y2="9.6612" gradientUnits="userSpaceOnUse">
<stop stop-color="#7BC143"/>
<stop offset="0.322917" stop-color="#B7D600"/>
<stop offset="0.557292" stop-color="#4AAC01"/>
<stop offset="0.75" stop-color="#84E03C"/>
<stop offset="1" stop-color="#43C150"/>
</linearGradient>
</defs>
</svg>
