<svg width="229" height="154" viewBox="0 0 229 154" fill="none" xmlns="http://www.w3.org/2000/svg">
<path d="M5.43604 9H1.21289V8.37158L2.90479 6.6709C3.42041 6.14941 3.76025 5.77734 3.92432 5.55469C4.08838 5.33203 4.21143 5.11523 4.29346 4.9043C4.37549 4.69336 4.4165 4.46631 4.4165 4.22314C4.4165 3.88037 4.3125 3.60937 4.10449 3.41016C3.89648 3.20801 3.60791 3.10693 3.23877 3.10693C2.97217 3.10693 2.71875 3.15088 2.47852 3.23877C2.24121 3.32666 1.97607 3.48633 1.68311 3.71777L1.29639 3.22119C1.88818 2.729 2.53271 2.48291 3.22998 2.48291C3.8335 2.48291 4.30664 2.63818 4.64941 2.94873C4.99219 3.25635 5.16357 3.6709 5.16357 4.19238C5.16357 4.59961 5.04932 5.00244 4.8208 5.40088C4.59229 5.79932 4.16455 6.30322 3.5376 6.9126L2.13135 8.28809V8.32324H5.43604V9ZM8.49023 2.48291C9.07617 2.48291 9.54053 2.61914 9.8833 2.8916C10.2261 3.16406 10.3975 3.54053 10.3975 4.021C10.3975 4.3374 10.2993 4.62598 10.103 4.88672C9.90674 5.14746 9.59326 5.38477 9.1626 5.59863C9.68408 5.84766 10.0547 6.10986 10.2744 6.38525C10.4941 6.65771 10.604 6.97412 10.604 7.33447C10.604 7.86768 10.418 8.29395 10.0459 8.61328C9.67383 8.92969 9.16406 9.08789 8.5166 9.08789C7.83105 9.08789 7.30371 8.93848 6.93457 8.63965C6.56543 8.33789 6.38086 7.91162 6.38086 7.36084C6.38086 6.62549 6.8291 6.05273 7.72559 5.64258C7.32129 5.41406 7.03125 5.16797 6.85547 4.9043C6.67969 4.6377 6.5918 4.34033 6.5918 4.01221C6.5918 3.54639 6.76318 3.17578 7.10596 2.90039C7.45166 2.62207 7.91309 2.48291 8.49023 2.48291ZM7.10156 7.37842C7.10156 7.72998 7.22314 8.00391 7.46631 8.2002C7.7124 8.39648 8.05664 8.49463 8.49902 8.49463C8.93555 8.49463 9.27539 8.39209 9.51855 8.18701C9.76172 7.98193 9.8833 7.70068 9.8833 7.34326C9.8833 7.05908 9.76904 6.80713 9.54053 6.5874C9.31201 6.36475 8.91357 6.14941 8.34521 5.94141C7.90869 6.12891 7.59229 6.33691 7.396 6.56543C7.19971 6.79102 7.10156 7.06201 7.10156 7.37842ZM8.48145 3.07617C8.11523 3.07617 7.82812 3.16406 7.62012 3.33984C7.41211 3.51562 7.30811 3.75 7.30811 4.04297C7.30811 4.3125 7.39453 4.54395 7.56738 4.7373C7.74023 4.93066 8.05957 5.12402 8.52539 5.31738C8.94434 5.1416 9.24023 4.95264 9.41309 4.75049C9.58887 4.54834 9.67676 4.3125 9.67676 4.04297C9.67676 3.74707 9.56982 3.5127 9.35596 3.33984C9.14502 3.16406 8.85352 3.07617 8.48145 3.07617ZM11.7422 8.53418C11.7422 8.33789 11.7861 8.18994 11.874 8.09033C11.9648 7.98779 12.0938 7.93652 12.2607 7.93652C12.4307 7.93652 12.5625 7.98779 12.6562 8.09033C12.7529 8.18994 12.8013 8.33789 12.8013 8.53418C12.8013 8.72461 12.7529 8.87109 12.6562 8.97363C12.5596 9.07617 12.4277 9.12744 12.2607 9.12744C12.1113 9.12744 11.9868 9.08203 11.8872 8.99121C11.7905 8.89746 11.7422 8.74512 11.7422 8.53418ZM18.1714 5.77881C18.1714 6.88916 17.9956 7.71826 17.644 8.26611C17.2954 8.81396 16.7607 9.08789 16.04 9.08789C15.3486 9.08789 14.8228 8.80811 14.4624 8.24854C14.1021 7.68604 13.9219 6.86279 13.9219 5.77881C13.9219 4.65967 14.0962 3.8291 14.4448 3.28711C14.7935 2.74512 15.3252 2.47412 16.04 2.47412C16.7373 2.47412 17.2661 2.75684 17.6265 3.32227C17.9897 3.8877 18.1714 4.70654 18.1714 5.77881ZM14.6602 5.77881C14.6602 6.71338 14.77 7.39453 14.9897 7.82227C15.2095 8.24707 15.5596 8.45947 16.04 8.45947C16.5264 8.45947 16.8779 8.24414 17.0947 7.81348C17.3145 7.37988 17.4243 6.70166 17.4243 5.77881C17.4243 4.85596 17.3145 4.18066 17.0947 3.75293C16.8779 3.32227 16.5264 3.10693 16.04 3.10693C15.5596 3.10693 15.2095 3.31934 14.9897 3.74414C14.77 4.16602 14.6602 4.84424 14.6602 5.77881ZM25.5366 9V5.8667C25.5366 5.48291 25.4546 5.1958 25.2905 5.00537C25.1265 4.81201 24.8716 4.71533 24.5259 4.71533C24.0718 4.71533 23.7363 4.8457 23.5195 5.10645C23.3027 5.36719 23.1943 5.76855 23.1943 6.31055V9H22.4648V5.8667C22.4648 5.48291 22.3828 5.1958 22.2188 5.00537C22.0547 4.81201 21.7983 4.71533 21.4497 4.71533C20.9927 4.71533 20.6572 4.85303 20.4434 5.12842C20.2324 5.40088 20.127 5.84912 20.127 6.47314V9H19.3975V4.18359H19.9907L20.1094 4.84277H20.1445C20.2822 4.6084 20.4756 4.42529 20.7246 4.29346C20.9766 4.16162 21.2578 4.0957 21.5684 4.0957C22.3213 4.0957 22.8135 4.36816 23.0449 4.91309H23.0801C23.2236 4.66113 23.4316 4.46191 23.7041 4.31543C23.9766 4.16895 24.2871 4.0957 24.6357 4.0957C25.1807 4.0957 25.5879 4.23633 25.8574 4.51758C26.1299 4.7959 26.2661 5.24268 26.2661 5.85791V9H25.5366Z" fill="#2A3749"/>
<path d="M5.43604 42H1.21289V41.3716L2.90479 39.6709C3.42041 39.1494 3.76025 38.7773 3.92432 38.5547C4.08838 38.332 4.21143 38.1152 4.29346 37.9043C4.37549 37.6934 4.4165 37.4663 4.4165 37.2231C4.4165 36.8804 4.3125 36.6094 4.10449 36.4102C3.89648 36.208 3.60791 36.1069 3.23877 36.1069C2.97217 36.1069 2.71875 36.1509 2.47852 36.2388C2.24121 36.3267 1.97607 36.4863 1.68311 36.7178L1.29639 36.2212C1.88818 35.729 2.53271 35.4829 3.22998 35.4829C3.8335 35.4829 4.30664 35.6382 4.64941 35.9487C4.99219 36.2563 5.16357 36.6709 5.16357 37.1924C5.16357 37.5996 5.04932 38.0024 4.8208 38.4009C4.59229 38.7993 4.16455 39.3032 3.5376 39.9126L2.13135 41.2881V41.3232H5.43604V42ZM9.06592 42H8.354V37.4209C8.354 37.04 8.36572 36.6797 8.38916 36.3398C8.32764 36.4014 8.25879 36.4658 8.18262 36.5332C8.10645 36.6006 7.75781 36.8862 7.13672 37.3901L6.75 36.8892L8.45068 35.5752H9.06592V42ZM11.7422 41.5342C11.7422 41.3379 11.7861 41.1899 11.874 41.0903C11.9648 40.9878 12.0938 40.9365 12.2607 40.9365C12.4307 40.9365 12.5625 40.9878 12.6562 41.0903C12.7529 41.1899 12.8013 41.3379 12.8013 41.5342C12.8013 41.7246 12.7529 41.8711 12.6562 41.9736C12.5596 42.0762 12.4277 42.1274 12.2607 42.1274C12.1113 42.1274 11.9868 42.082 11.8872 41.9912C11.7905 41.8975 11.7422 41.7451 11.7422 41.5342ZM18.1714 38.7788C18.1714 39.8892 17.9956 40.7183 17.644 41.2661C17.2954 41.814 16.7607 42.0879 16.04 42.0879C15.3486 42.0879 14.8228 41.8081 14.4624 41.2485C14.1021 40.686 13.9219 39.8628 13.9219 38.7788C13.9219 37.6597 14.0962 36.8291 14.4448 36.2871C14.7935 35.7451 15.3252 35.4741 16.04 35.4741C16.7373 35.4741 17.2661 35.7568 17.6265 36.3223C17.9897 36.8877 18.1714 37.7065 18.1714 38.7788ZM14.6602 38.7788C14.6602 39.7134 14.77 40.3945 14.9897 40.8223C15.2095 41.2471 15.5596 41.4595 16.04 41.4595C16.5264 41.4595 16.8779 41.2441 17.0947 40.8135C17.3145 40.3799 17.4243 39.7017 17.4243 38.7788C17.4243 37.856 17.3145 37.1807 17.0947 36.7529C16.8779 36.3223 16.5264 36.1069 16.04 36.1069C15.5596 36.1069 15.2095 36.3193 14.9897 36.7441C14.77 37.166 14.6602 37.8442 14.6602 38.7788ZM25.5366 42V38.8667C25.5366 38.4829 25.4546 38.1958 25.2905 38.0054C25.1265 37.812 24.8716 37.7153 24.5259 37.7153C24.0718 37.7153 23.7363 37.8457 23.5195 38.1064C23.3027 38.3672 23.1943 38.7686 23.1943 39.3105V42H22.4648V38.8667C22.4648 38.4829 22.3828 38.1958 22.2188 38.0054C22.0547 37.812 21.7983 37.7153 21.4497 37.7153C20.9927 37.7153 20.6572 37.853 20.4434 38.1284C20.2324 38.4009 20.127 38.8491 20.127 39.4731V42H19.3975V37.1836H19.9907L20.1094 37.8428H20.1445C20.2822 37.6084 20.4756 37.4253 20.7246 37.2935C20.9766 37.1616 21.2578 37.0957 21.5684 37.0957C22.3213 37.0957 22.8135 37.3682 23.0449 37.9131H23.0801C23.2236 37.6611 23.4316 37.4619 23.7041 37.3154C23.9766 37.1689 24.2871 37.0957 24.6357 37.0957C25.1807 37.0957 25.5879 37.2363 25.8574 37.5176C26.1299 37.7959 26.2661 38.2427 26.2661 38.8579V42H25.5366Z" fill="#2A3749"/>
<path d="M3.91553 74H3.20361V69.4209C3.20361 69.04 3.21533 68.6797 3.23877 68.3398C3.17725 68.4014 3.1084 68.4658 3.03223 68.5332C2.95605 68.6006 2.60742 68.8862 1.98633 69.3901L1.59961 68.8892L3.30029 67.5752H3.91553V74ZM10.8896 72.5234H9.93604V74H9.2373V72.5234H6.11279V71.8862L9.1626 67.54H9.93604V71.8599H10.8896V72.5234ZM9.2373 71.8599V69.7241C9.2373 69.3052 9.25195 68.832 9.28125 68.3047H9.24609C9.10547 68.5859 8.97363 68.8188 8.85059 69.0034L6.84229 71.8599H9.2373ZM11.7422 73.5342C11.7422 73.3379 11.7861 73.1899 11.874 73.0903C11.9648 72.9878 12.0938 72.9365 12.2607 72.9365C12.4307 72.9365 12.5625 72.9878 12.6562 73.0903C12.7529 73.1899 12.8013 73.3379 12.8013 73.5342C12.8013 73.7246 12.7529 73.8711 12.6562 73.9736C12.5596 74.0762 12.4277 74.1274 12.2607 74.1274C12.1113 74.1274 11.9868 74.082 11.8872 73.9912C11.7905 73.8975 11.7422 73.7451 11.7422 73.5342ZM18.1714 70.7788C18.1714 71.8892 17.9956 72.7183 17.644 73.2661C17.2954 73.814 16.7607 74.0879 16.04 74.0879C15.3486 74.0879 14.8228 73.8081 14.4624 73.2485C14.1021 72.686 13.9219 71.8628 13.9219 70.7788C13.9219 69.6597 14.0962 68.8291 14.4448 68.2871C14.7935 67.7451 15.3252 67.4741 16.04 67.4741C16.7373 67.4741 17.2661 67.7568 17.6265 68.3223C17.9897 68.8877 18.1714 69.7065 18.1714 70.7788ZM14.6602 70.7788C14.6602 71.7134 14.77 72.3945 14.9897 72.8223C15.2095 73.2471 15.5596 73.4595 16.04 73.4595C16.5264 73.4595 16.8779 73.2441 17.0947 72.8135C17.3145 72.3799 17.4243 71.7017 17.4243 70.7788C17.4243 69.856 17.3145 69.1807 17.0947 68.7529C16.8779 68.3223 16.5264 68.1069 16.04 68.1069C15.5596 68.1069 15.2095 68.3193 14.9897 68.7441C14.77 69.166 14.6602 69.8442 14.6602 70.7788ZM25.5366 74V70.8667C25.5366 70.4829 25.4546 70.1958 25.2905 70.0054C25.1265 69.812 24.8716 69.7153 24.5259 69.7153C24.0718 69.7153 23.7363 69.8457 23.5195 70.1064C23.3027 70.3672 23.1943 70.7686 23.1943 71.3105V74H22.4648V70.8667C22.4648 70.4829 22.3828 70.1958 22.2188 70.0054C22.0547 69.812 21.7983 69.7153 21.4497 69.7153C20.9927 69.7153 20.6572 69.853 20.4434 70.1284C20.2324 70.4009 20.127 70.8491 20.127 71.4731V74H19.3975V69.1836H19.9907L20.1094 69.8428H20.1445C20.2822 69.6084 20.4756 69.4253 20.7246 69.2935C20.9766 69.1616 21.2578 69.0957 21.5684 69.0957C22.3213 69.0957 22.8135 69.3682 23.0449 69.9131H23.0801C23.2236 69.6611 23.4316 69.4619 23.7041 69.3154C23.9766 69.1689 24.2871 69.0957 24.6357 69.0957C25.1807 69.0957 25.5879 69.2363 25.8574 69.5176C26.1299 69.7959 26.2661 70.2427 26.2661 70.8579V74H25.5366Z" fill="#2A3749"/>
<path d="M7.17627 107L9.83936 101.248H6.33691V100.575H10.6128V101.16L7.98486 107H7.17627ZM11.7422 106.534C11.7422 106.338 11.7861 106.19 11.874 106.09C11.9648 105.988 12.0938 105.937 12.2607 105.937C12.4307 105.937 12.5625 105.988 12.6562 106.09C12.7529 106.19 12.8013 106.338 12.8013 106.534C12.8013 106.725 12.7529 106.871 12.6562 106.974C12.5596 107.076 12.4277 107.127 12.2607 107.127C12.1113 107.127 11.9868 107.082 11.8872 106.991C11.7905 106.897 11.7422 106.745 11.7422 106.534ZM18.1714 103.779C18.1714 104.889 17.9956 105.718 17.644 106.266C17.2954 106.814 16.7607 107.088 16.04 107.088C15.3486 107.088 14.8228 106.808 14.4624 106.249C14.1021 105.686 13.9219 104.863 13.9219 103.779C13.9219 102.66 14.0962 101.829 14.4448 101.287C14.7935 100.745 15.3252 100.474 16.04 100.474C16.7373 100.474 17.2661 100.757 17.6265 101.322C17.9897 101.888 18.1714 102.707 18.1714 103.779ZM14.6602 103.779C14.6602 104.713 14.77 105.395 14.9897 105.822C15.2095 106.247 15.5596 106.459 16.04 106.459C16.5264 106.459 16.8779 106.244 17.0947 105.813C17.3145 105.38 17.4243 104.702 17.4243 103.779C17.4243 102.856 17.3145 102.181 17.0947 101.753C16.8779 101.322 16.5264 101.107 16.04 101.107C15.5596 101.107 15.2095 101.319 14.9897 101.744C14.77 102.166 14.6602 102.844 14.6602 103.779ZM25.5366 107V103.867C25.5366 103.483 25.4546 103.196 25.2905 103.005C25.1265 102.812 24.8716 102.715 24.5259 102.715C24.0718 102.715 23.7363 102.846 23.5195 103.106C23.3027 103.367 23.1943 103.769 23.1943 104.311V107H22.4648V103.867C22.4648 103.483 22.3828 103.196 22.2188 103.005C22.0547 102.812 21.7983 102.715 21.4497 102.715C20.9927 102.715 20.6572 102.853 20.4434 103.128C20.2324 103.401 20.127 103.849 20.127 104.473V107H19.3975V102.184H19.9907L20.1094 102.843H20.1445C20.2822 102.608 20.4756 102.425 20.7246 102.293C20.9766 102.162 21.2578 102.096 21.5684 102.096C22.3213 102.096 22.8135 102.368 23.0449 102.913H23.0801C23.2236 102.661 23.4316 102.462 23.7041 102.315C23.9766 102.169 24.2871 102.096 24.6357 102.096C25.1807 102.096 25.5879 102.236 25.8574 102.518C26.1299 102.796 26.2661 103.243 26.2661 103.858V107H25.5366Z" fill="#2A3749"/>
<path d="M26.5474 136.779C26.5474 137.889 26.3716 138.718 26.02 139.266C25.6714 139.814 25.1367 140.088 24.416 140.088C23.7246 140.088 23.1987 139.808 22.8384 139.249C22.478 138.686 22.2979 137.863 22.2979 136.779C22.2979 135.66 22.4722 134.829 22.8208 134.287C23.1694 133.745 23.7012 133.474 24.416 133.474C25.1133 133.474 25.6421 133.757 26.0024 134.322C26.3657 134.888 26.5474 135.707 26.5474 136.779ZM23.0361 136.779C23.0361 137.713 23.146 138.395 23.3657 138.822C23.5854 139.247 23.9355 139.459 24.416 139.459C24.9023 139.459 25.2539 139.244 25.4707 138.813C25.6904 138.38 25.8003 137.702 25.8003 136.779C25.8003 135.856 25.6904 135.181 25.4707 134.753C25.2539 134.322 24.9023 134.107 24.416 134.107C23.9355 134.107 23.5854 134.319 23.3657 134.744C23.146 135.166 23.0361 135.844 23.0361 136.779Z" fill="#2A3749"/>
<path d="M43.1973 148.779C43.1973 149.889 43.0215 150.718 42.6699 151.266C42.3213 151.814 41.7866 152.088 41.0659 152.088C40.3745 152.088 39.8486 151.808 39.4883 151.249C39.1279 150.686 38.9478 149.863 38.9478 148.779C38.9478 147.66 39.1221 146.829 39.4707 146.287C39.8193 145.745 40.3511 145.474 41.0659 145.474C41.7632 145.474 42.292 145.757 42.6523 146.322C43.0156 146.888 43.1973 147.707 43.1973 148.779ZM39.686 148.779C39.686 149.713 39.7959 150.395 40.0156 150.822C40.2354 151.247 40.5854 151.459 41.0659 151.459C41.5522 151.459 41.9038 151.244 42.1206 150.813C42.3403 150.38 42.4502 149.702 42.4502 148.779C42.4502 147.856 42.3403 147.181 42.1206 146.753C41.9038 146.322 41.5522 146.107 41.0659 146.107C40.5854 146.107 40.2354 146.319 40.0156 146.744C39.7959 147.166 39.686 147.844 39.686 148.779ZM46.792 152H46.0801V147.421C46.0801 147.04 46.0918 146.68 46.1152 146.34C46.0537 146.401 45.9849 146.466 45.9087 146.533C45.8325 146.601 45.4839 146.886 44.8628 147.39L44.4761 146.889L46.1768 145.575H46.792V152ZM49.4683 151.534C49.4683 151.338 49.5122 151.19 49.6001 151.09C49.6909 150.988 49.8198 150.937 49.9868 150.937C50.1567 150.937 50.2886 150.988 50.3823 151.09C50.479 151.19 50.5273 151.338 50.5273 151.534C50.5273 151.725 50.479 151.871 50.3823 151.974C50.2856 152.076 50.1538 152.127 49.9868 152.127C49.8374 152.127 49.7129 152.082 49.6133 151.991C49.5166 151.897 49.4683 151.745 49.4683 151.534ZM55.8975 148.779C55.8975 149.889 55.7217 150.718 55.3701 151.266C55.0215 151.814 54.4868 152.088 53.7661 152.088C53.0747 152.088 52.5488 151.808 52.1885 151.249C51.8281 150.686 51.6479 149.863 51.6479 148.779C51.6479 147.66 51.8223 146.829 52.1709 146.287C52.5195 145.745 53.0513 145.474 53.7661 145.474C54.4634 145.474 54.9922 145.757 55.3525 146.322C55.7158 146.888 55.8975 147.707 55.8975 148.779ZM52.3862 148.779C52.3862 149.713 52.4961 150.395 52.7158 150.822C52.9355 151.247 53.2856 151.459 53.7661 151.459C54.2524 151.459 54.604 151.244 54.8208 150.813C55.0405 150.38 55.1504 149.702 55.1504 148.779C55.1504 147.856 55.0405 147.181 54.8208 146.753C54.604 146.322 54.2524 146.107 53.7661 146.107C53.2856 146.107 52.9355 146.319 52.7158 146.744C52.4961 147.166 52.3862 147.844 52.3862 148.779ZM56.8643 149.253C56.8643 147.991 57.1089 147.047 57.5981 146.423C58.0903 145.796 58.8169 145.483 59.7778 145.483C60.1089 145.483 60.3696 145.511 60.5601 145.566V146.195C60.3345 146.122 60.0767 146.085 59.7866 146.085C59.0981 146.085 58.5723 146.3 58.209 146.731C57.8457 147.159 57.6465 147.833 57.6113 148.752H57.6641C57.9863 148.249 58.4961 147.997 59.1934 147.997C59.7705 147.997 60.2246 148.171 60.5557 148.52C60.8896 148.868 61.0566 149.341 61.0566 149.939C61.0566 150.607 60.8735 151.133 60.5073 151.517C60.144 151.897 59.6519 152.088 59.0308 152.088C58.3657 152.088 57.8384 151.839 57.4487 151.341C57.0591 150.84 56.8643 150.144 56.8643 149.253ZM59.022 151.468C59.438 151.468 59.7603 151.338 59.9888 151.077C60.2202 150.813 60.3359 150.434 60.3359 149.939C60.3359 149.514 60.229 149.18 60.0151 148.937C59.8013 148.694 59.4819 148.572 59.0571 148.572C58.7935 148.572 58.5518 148.626 58.332 148.735C58.1123 148.843 57.9365 148.993 57.8047 149.183C57.6758 149.374 57.6113 149.571 57.6113 149.776C57.6113 150.078 57.6699 150.359 57.7871 150.62C57.9043 150.881 58.0698 151.087 58.2837 151.24C58.5005 151.392 58.7466 151.468 59.022 151.468Z" fill="#2A3749"/>
<path d="M208.697 148.779C208.697 149.889 208.521 150.718 208.17 151.266C207.821 151.814 207.287 152.088 206.566 152.088C205.875 152.088 205.349 151.808 204.988 151.249C204.628 150.686 204.448 149.863 204.448 148.779C204.448 147.66 204.622 146.829 204.971 146.287C205.319 145.745 205.851 145.474 206.566 145.474C207.263 145.474 207.792 145.757 208.152 146.322C208.516 146.888 208.697 147.707 208.697 148.779ZM205.186 148.779C205.186 149.713 205.296 150.395 205.516 150.822C205.735 151.247 206.085 151.459 206.566 151.459C207.052 151.459 207.404 151.244 207.621 150.813C207.84 150.38 207.95 149.702 207.95 148.779C207.95 147.856 207.84 147.181 207.621 146.753C207.404 146.322 207.052 146.107 206.566 146.107C206.085 146.107 205.735 146.319 205.516 146.744C205.296 147.166 205.186 147.844 205.186 148.779ZM213.812 152H209.589V151.372L211.281 149.671C211.797 149.149 212.137 148.777 212.301 148.555C212.465 148.332 212.588 148.115 212.67 147.904C212.752 147.693 212.793 147.466 212.793 147.223C212.793 146.88 212.689 146.609 212.481 146.41C212.273 146.208 211.984 146.107 211.615 146.107C211.349 146.107 211.095 146.151 210.855 146.239C210.618 146.327 210.353 146.486 210.06 146.718L209.673 146.221C210.265 145.729 210.909 145.483 211.606 145.483C212.21 145.483 212.683 145.638 213.026 145.949C213.369 146.256 213.54 146.671 213.54 147.192C213.54 147.6 213.426 148.002 213.197 148.401C212.969 148.799 212.541 149.303 211.914 149.913L210.508 151.288V151.323H213.812V152ZM214.968 151.534C214.968 151.338 215.012 151.19 215.1 151.09C215.191 150.988 215.32 150.937 215.487 150.937C215.657 150.937 215.789 150.988 215.882 151.09C215.979 151.19 216.027 151.338 216.027 151.534C216.027 151.725 215.979 151.871 215.882 151.974C215.786 152.076 215.654 152.127 215.487 152.127C215.337 152.127 215.213 152.082 215.113 151.991C215.017 151.897 214.968 151.745 214.968 151.534ZM221.397 148.779C221.397 149.889 221.222 150.718 220.87 151.266C220.521 151.814 219.987 152.088 219.266 152.088C218.575 152.088 218.049 151.808 217.688 151.249C217.328 150.686 217.148 149.863 217.148 148.779C217.148 147.66 217.322 146.829 217.671 146.287C218.02 145.745 218.551 145.474 219.266 145.474C219.963 145.474 220.492 145.757 220.853 146.322C221.216 146.888 221.397 147.707 221.397 148.779ZM217.886 148.779C217.886 149.713 217.996 150.395 218.216 150.822C218.436 151.247 218.786 151.459 219.266 151.459C219.752 151.459 220.104 151.244 220.321 150.813C220.541 150.38 220.65 149.702 220.65 148.779C220.65 147.856 220.541 147.181 220.321 146.753C220.104 146.322 219.752 146.107 219.266 146.107C218.786 146.107 218.436 146.319 218.216 146.744C217.996 147.166 217.886 147.844 217.886 148.779ZM226.816 150.523H225.862V152H225.164V150.523H222.039V149.886L225.089 145.54H225.862V149.86H226.816V150.523ZM225.164 149.86V147.724C225.164 147.305 225.178 146.832 225.208 146.305H225.172C225.032 146.586 224.9 146.819 224.777 147.003L222.769 149.86H225.164Z" fill="#2A3749"/>
<path d="M34.9141 8.80988H228.127" stroke="#D9D8E9"/>
<path d="M34.9141 41.2759H228.127" stroke="#D9D8E9"/>
<path d="M34.9141 73.742H228.127" stroke="#D9D8E9"/>
<path d="M34.9141 107H228.127" stroke="#D9D8E9"/>
<path d="M34.9141 139.466H228.127" stroke="#D9D8E9"/>
<path d="M34.9141 66.4519C36.2393 68.8371 40.4269 73.6074 46.5757 73.6074C54.2618 73.6074 67.737 90.371 77.2783 90.371C86.8197 90.371 96.6679 61.0852 103.294 61.0852C109.92 61.0852 122.375 107 131.916 107C141.458 107 153.916 73.6074 162.927 73.6074C169.529 73.6074 175.864 84.828 179.824 90.371C187.96 101.762 194.869 107 206.924 107C218.979 107 221.236 73.6074 228.127 73.6074" stroke="#FFA621"/>
<path d="M46.5757 73.5434C40.4269 73.5434 36.2393 68.7778 34.9141 66.3949V138.674H228.127V73.5434C221.236 73.5434 220.604 105.416 207.143 107C196.743 108.223 186.872 98.0026 182.199 93.1425C172.301 82.8483 169.925 73.5434 162.927 73.5434C153.916 73.5434 141.458 106.903 131.916 106.903C122.375 106.903 109.92 61.0336 103.294 61.0336C96.6679 61.0336 86.0278 90.371 76.4865 90.371C66.9451 90.371 54.2618 73.5434 46.5757 73.5434Z" fill="url(#paint0_linear)"/>
<defs>
<linearGradient id="paint0_linear" x1="263.642" y1="8.80989" x2="263.642" y2="172.828" gradientUnits="userSpaceOnUse">
<stop stop-color="#FF7D34" stop-opacity="0.17"/>
<stop offset="1" stop-color="#FFCE21" stop-opacity="0"/>
</linearGradient>
</defs>
</svg>
