<svg width="22" height="18" viewBox="0 0 22 18" fill="none" xmlns="http://www.w3.org/2000/svg">
<path d="M20.1067 3.17448C19.6568 3.29255 19.303 3.27569 19.303 3.27569L19.3161 3.19135C19.7354 2.86665 20.7881 1.87568 20.9279 1.41183C20.989 1.20942 20.9148 1.14195 20.9148 1.13352L19.5651 1.68593L18.4382 2.17508C17.6607 1.37809 16.4814 0.872071 15.1623 0.872071C12.8168 0.872071 10.9168 2.47448 10.9168 4.45219C10.9168 4.81484 10.9736 5.47267 11.0915 5.80159C11.0915 5.90701 11.0959 5.69617 11.0915 5.80159C9.58027 5.76364 7.64533 5.16484 5.92441 4.32147C2.52625 2.66002 2.31222 1.50882 2.31222 1.50882C1.77935 2.05701 1.50418 3.86605 2.04579 5.28713C2.39085 6.19798 3.58326 7.01183 3.58326 7.01183C3.58326 7.01183 3.05039 7.02026 2.49131 6.83894C1.93223 6.65761 1.72257 6.47629 1.72257 6.47629C1.39062 7.25641 2.05452 8.65219 3.20763 9.65159C3.8759 10.2335 5.10326 10.6004 5.10326 10.6004L3.19016 10.651C3.08096 12.4474 7.09062 13.5142 7.09062 13.5142C5.91567 14.3871 4.55292 14.9185 3.09407 14.9185C2.33843 14.9185 1.60464 14.8088 0.910159 14.6106C2.84073 16.1456 5.32165 17.204 8.0166 17.0691C15.1711 16.7064 19.2069 10.7691 19.3991 4.93713L19.4079 4.94978C19.4079 4.94978 19.7442 4.78954 20.4605 4.09797C21.1768 3.40641 21.6223 2.59677 21.6223 2.59677C21.6223 2.59677 20.5566 3.05219 20.1067 3.17448Z" fill="#1F1F1F"/>
</svg>
