<svg width="26" height="24" viewBox="0 0 26 24" fill="none" xmlns="http://www.w3.org/2000/svg">
<path fill-rule="evenodd" clip-rule="evenodd" d="M5.57137 -4.15603e-08L7.42851 5.53846L7.42851 9.23077L8.66661 9.23077L8.66661 5.53846L10.5237 -7.85028e-08L9.28565 -6.92672e-08L8.04756 3.69231L6.80946 -5.07959e-08L5.57137 -4.15603e-08ZM12.3809 2.46154C11.7207 2.46154 11.3967 2.5649 10.9929 2.89423C10.606 3.21875 10.4996 3.46875 10.5237 4.30769L10.5237 7.38462C10.5237 7.9976 10.6253 8.40144 10.9977 8.75962C11.3846 9.11779 11.7498 9.23077 12.3809 9.23077C13.041 9.23077 13.4014 9.11779 13.7737 8.75962C14.1607 8.41587 14.238 7.9976 14.238 7.38462L14.238 4.30769C14.238 3.76442 14.1413 3.25 13.7665 2.90625C13.3796 2.55289 12.9806 2.46154 12.3809 2.46154ZM15.4761 2.46154L15.4761 8C15.4761 8.59856 16.0831 9.23077 16.7142 9.23077C17.3454 9.23077 17.6791 8.91587 17.9523 8.61538L17.9523 9.23077L19.1904 9.23077L19.1904 2.46154L17.9523 2.46154L17.9523 7.38462C17.9451 7.80529 17.4469 8 17.3333 8C17.2051 8 16.7142 7.97356 16.7142 7.38462L16.7142 2.46154L15.4761 2.46154ZM12.3809 3.69231C12.5671 3.69231 12.9999 3.6899 12.9999 4.30769L12.9999 7.38462C12.9999 7.98077 12.5816 8 12.3809 8C12.1947 8 11.7618 7.99279 11.7618 7.38462L11.7618 4.30769C11.7618 3.80529 12.0303 3.69231 12.3809 3.69231ZM3.71423 10.4615C1.48952 10.4615 -6.05613e-05 11.9279 -6.04728e-05 14.1538L-6.02405e-05 20C-6.01521e-05 22.226 1.48952 24 3.71423 24L22.2857 24C24.5104 24 25.9999 22.5337 25.9999 20.3077L25.9999 14.1538C25.9999 11.9279 24.5104 10.4615 22.2857 10.4615L3.71423 10.4615ZM4.95232 12.9231L8.66661 12.9231L8.66661 14.1538L7.42851 14.1538L7.42851 21.5385L6.19042 21.5385L6.19042 14.1538L4.95232 14.1538L4.95232 12.9231ZM13.619 12.9231L14.8571 12.9231L14.8571 15.3846C14.9998 15.1635 15.2126 14.988 15.4157 14.8894C15.614 14.7885 15.8147 14.7308 16.0178 14.7308C16.4192 14.7308 16.7336 14.875 16.9488 15.1442C17.164 15.4159 17.3333 15.7764 17.3333 16.3077L17.3333 20C17.3333 20.4567 17.1785 20.7404 16.9754 20.9832C16.7771 21.226 16.4797 21.5337 16.0952 21.5385C15.4447 21.5457 15.0965 21.1995 14.8571 20.9231L14.8571 21.5385L13.619 21.5385L13.619 12.9231ZM8.66661 14.7692L9.9047 14.7692L9.9047 19.6923C9.9047 19.8341 10.0716 20.3125 10.5237 20.3077C11.0267 20.3029 11.0316 19.8365 11.1428 19.6923L11.1428 14.7692L12.3809 14.7692L12.3809 21.5385L11.1428 21.5385L11.1428 20.9231C10.9131 21.1923 10.7946 21.2764 10.5358 21.4038C10.2795 21.5481 10.0184 21.5385 9.77654 21.5385C9.47669 21.5385 9.13573 21.2692 8.97613 21.0673C8.83346 20.8822 8.66661 20.6923 8.66661 20.3077L8.66661 14.7692ZM19.9328 14.7692C20.5204 14.7692 20.9339 14.8942 21.2458 15.2212C21.565 15.5481 21.6666 15.9303 21.6666 16.5457L21.6666 18.4615L19.1904 18.4615L19.1904 19.4135C19.1904 19.7572 19.2364 19.976 19.3258 20.1058C19.4105 20.2476 19.5822 20.3101 19.8095 20.3077C20.061 20.3053 20.2206 20.2548 20.3052 20.1418C20.3922 20.0409 20.4285 19.7548 20.4285 19.3846L20.4285 19.0769L21.6666 19.0769L21.6666 19.4423C21.6666 20.113 21.6134 20.613 21.2797 20.9399C20.9653 21.2837 20.4745 21.4423 19.8312 21.4423C19.2436 21.4423 18.7842 21.2692 18.4553 20.9135C18.1264 20.5577 17.9547 20.0697 17.9547 19.4423L17.9547 16.5457C17.9547 15.988 18.1506 15.5745 18.5109 15.2067C18.8011 14.9111 19.3452 14.7692 19.9328 14.7692ZM15.4761 15.6923C15.1352 15.6923 14.8619 15.9976 14.8571 16.3077L14.8571 20C14.8619 20.1779 15.1352 20.3077 15.4761 20.3077C15.8171 20.3077 16.0952 20.0457 16.0952 19.7067L16.0952 16.6154C16.0952 16 15.8171 15.6923 15.4761 15.6923ZM19.8095 16C19.4685 16 19.1953 16.2861 19.1904 16.6154L19.1904 17.2308L20.4285 17.2308L20.4285 16.6154C20.4285 16.238 20.1504 16 19.8095 16Z" fill="black"/>
</svg>
