<svg width="23" height="23" viewBox="0 0 23 23" fill="none" xmlns="http://www.w3.org/2000/svg">
    <path d="M10.5516 22.1655C5.23548 22.1655 0.914562 17.877 0.914558 12.6101C0.914554 7.33903 5.23547 3.05469 10.5516 3.05469C15.8634 3.05469 20.1886 7.33903 20.1886 12.6101C20.1886 17.877 15.8634 22.1655 10.5516 22.1655Z" stroke="#1F1F1F" stroke-miterlimit="10"/>
    <path d="M10.4785 20.1777C6.26573 20.1777 2.84156 16.8117 2.84156 12.6777C2.84156 8.54049 6.26572 5.17773 10.4785 5.17773C14.6879 5.17773 18.1155 8.54049 18.1155 12.6777C18.1155 16.8117 14.688 20.1777 10.4785 20.1777Z" fill="#1F1F1F"/>
    <path d="M22.0386 3.35011C22.0386 4.44649 21.1455 5.33203 20.0397 5.33203C18.934 5.33203 18.0409 4.44227 18.0409 3.35011C18.0409 2.25372 18.9383 1.36818 20.0397 1.36818C21.1455 1.36396 22.0386 2.25372 22.0386 3.35011Z" stroke="#1F1F1F" stroke-miterlimit="10"/>
</svg>
