<svg width="117" height="19" viewBox="0 0 117 19" fill="none" xmlns="http://www.w3.org/2000/svg">
<path d="M9.08738 0L12.2922 4.67627L17.73 6.27922L14.2729 10.7723L14.4288 16.4392L9.08738 14.5398L3.74595 16.4392L3.90181 10.7723L0.444768 6.27922L5.88252 4.67627L9.08738 0Z" fill="#FFB800"/>
<path d="M34.0776 0L37.2825 4.67627L42.7202 6.27922L39.2632 10.7723L39.419 16.4392L34.0776 14.5398L28.7362 16.4392L28.892 10.7723L25.435 6.27922L30.8728 4.67627L34.0776 0Z" fill="#FFB800"/>
<path d="M58.4999 1.20248L60.9576 5.02763L61.0849 5.22572L61.3095 5.29634L65.5484 6.62921L62.8342 10.392L62.7059 10.5698L62.7116 10.789L62.8327 15.4881L58.7304 13.9321L58.4999 13.8446L58.2694 13.9321L54.167 15.4881L54.2882 10.789L54.2939 10.5698L54.1656 10.392L51.4514 6.62921L55.6903 5.29634L55.9149 5.22572L56.0422 5.02763L58.4999 1.20248Z" fill="white" stroke="#FFB800" stroke-width="1.3"/>
<path d="M82.9223 1.14979L85.591 5.04373L85.7217 5.23439L85.9434 5.29975L90.4714 6.63453L87.5927 10.3759L87.4518 10.5591L87.4582 10.7901L87.5879 15.509L83.1401 13.9274L82.9223 13.8499L82.7046 13.9274L78.2567 15.509L78.3865 10.7901L78.3929 10.5591L78.2519 10.3759L75.3732 6.63453L79.9013 5.29975L80.123 5.23439L80.2536 5.04373L82.9223 1.14979Z" fill="white" stroke="#FFB800" stroke-width="1.3"/>
<path d="M107.913 1.14979L110.581 5.04373L110.712 5.23439L110.934 5.29975L115.462 6.63453L112.583 10.3759L112.442 10.5591L112.448 10.7901L112.578 15.509L108.13 13.9274L107.913 13.8499L107.695 13.9274L103.247 15.509L103.377 10.7901L103.383 10.5591L103.242 10.3759L100.363 6.63453L104.892 5.29975L105.113 5.23439L105.244 5.04373L107.913 1.14979Z" fill="white" stroke="#FFB800" stroke-width="1.3"/>
</svg>
