<svg width="37" height="35" viewBox="0 0 37 35" fill="none" xmlns="http://www.w3.org/2000/svg">
<path d="M29.3326 34.2205L7.77058 34.2205C4.0323 34.2205 1.00001 31.2139 1 27.5072L1 7.71325C1 4.00663 4.0323 1 7.77057 1L29.3326 1C33.0709 1 36.1032 4.00663 36.1032 7.71325L36.1032 27.5114C36.099 31.2181 33.0709 34.2205 29.3326 34.2205Z" stroke="#1F1F1F" stroke-miterlimit="10"/>
<path d="M18.5516 27.1655C13.2355 27.1655 8.91456 22.877 8.91456 17.6101C8.91455 12.339 13.2355 8.05469 18.5516 8.05469C23.8634 8.05469 28.1886 12.339 28.1886 17.6101C28.1886 22.877 23.8634 27.1655 18.5516 27.1655Z" stroke="#1F1F1F" stroke-miterlimit="10"/>
<path d="M18.4785 25.1777C14.2657 25.1777 10.8416 21.8117 10.8416 17.6777C10.8416 13.5405 14.2657 10.1777 18.4785 10.1777C22.6879 10.1777 26.1155 13.5405 26.1155 17.6777C26.1155 21.8117 22.688 25.1777 18.4785 25.1777Z" fill="#1F1F1F"/>
<path d="M30.0386 8.35011C30.0386 9.44649 29.1455 10.332 28.0397 10.332C26.934 10.332 26.0409 9.44227 26.0409 8.35011C26.0409 7.25372 26.9383 6.36818 28.0397 6.36818C29.1455 6.36396 30.0386 7.25372 30.0386 8.35011Z" stroke="#1F1F1F" stroke-miterlimit="10"/>
</svg>
