<svg width="189" height="21" viewBox="0 0 189 21" fill="none" xmlns="http://www.w3.org/2000/svg">
<path fill-rule="evenodd" clip-rule="evenodd" d="M167.494 1.46075C167.494 0.770398 166.935 0.210754 166.244 0.210754C165.554 0.210754 164.994 0.770398 164.994 1.46075V6.26843C164.994 6.28654 164.994 6.3046 164.994 6.3226V15.9623C164.994 16.6527 165.554 17.2123 166.244 17.2123C166.935 17.2123 167.494 16.6527 167.494 15.9623V6.44845L167.666 5.76052C167.972 4.53631 169.072 3.67749 170.334 3.67749H173.978C174.669 3.67749 175.228 3.11785 175.228 2.42749C175.228 1.73714 174.669 1.17749 173.978 1.17749H170.334C169.298 1.17749 168.32 1.48055 167.494 2.01181V1.46075ZM38.75 2C38.75 1.30964 39.3096 0.75 40 0.75H50.5348C52.882 0.75 54.7848 2.65279 54.7848 5V11.7167C54.7848 14.0639 52.882 15.9667 50.5348 15.9667H41.25V19.4019C41.25 20.0922 40.6904 20.6519 40 20.6519C39.3096 20.6519 38.75 20.0922 38.75 19.4019V14.7167V5.86708C38.75 5.17672 39.3096 4.61708 40 4.61708C40.6904 4.61708 41.25 5.17672 41.25 5.86708V13.4667H50.5348C51.5013 13.4667 52.2848 12.6832 52.2848 11.7167V5C52.2848 4.0335 51.5013 3.25 50.5348 3.25H40C39.3096 3.25 38.75 2.69036 38.75 2ZM0.210693 2.13737C0.210693 1.44702 0.770337 0.887374 1.46069 0.887374H8.22808C12.656 0.887374 16.2455 4.47688 16.2455 8.90476C16.2455 13.3326 12.656 16.9221 8.22808 16.9221H1.46069C0.770337 16.9221 0.210693 16.3625 0.210693 15.6721V6.00445C0.210693 5.3141 0.770337 4.75445 1.46069 4.75445C2.15105 4.75445 2.71069 5.3141 2.71069 6.00445V14.4221H8.22808C11.2752 14.4221 13.7455 11.9519 13.7455 8.90476C13.7455 5.85759 11.2752 3.38737 8.22808 3.38737H1.46069C0.770337 3.38737 0.210693 2.82773 0.210693 2.13737ZM59.4669 0.887374C58.7765 0.887374 58.2169 1.44702 58.2169 2.13737C58.2169 2.82773 58.7765 3.38737 59.4669 3.38737H70.0016C70.9681 3.38737 71.7516 4.17088 71.7516 5.13737V11.8541C71.7516 12.8206 70.9681 13.6041 70.0016 13.6041H60.7169V6.00445C60.7169 5.3141 60.1572 4.75445 59.4669 4.75445C58.7765 4.75445 58.2169 5.3141 58.2169 6.00445V14.8541V19.5392C58.2169 20.2296 58.7765 20.7892 59.4669 20.7892C60.1572 20.7892 60.7169 20.2296 60.7169 19.5392V16.1041H70.0016C72.3489 16.1041 74.2516 14.2013 74.2516 11.8541V5.13737C74.2516 2.79016 72.3489 0.887374 70.0016 0.887374H59.4669ZM125.066 2.13737C125.066 1.44702 125.626 0.887374 126.316 0.887374H136.851C139.198 0.887374 141.101 2.79016 141.101 5.13737V11.8541C141.101 14.2013 139.198 16.1041 136.851 16.1041H127.566V19.5392C127.566 20.2296 127.007 20.7892 126.316 20.7892C125.626 20.7892 125.066 20.2296 125.066 19.5392V14.8541V6.00445C125.066 5.3141 125.626 4.75445 126.316 4.75445C127.007 4.75445 127.566 5.3141 127.566 6.00445V13.6041H136.851C137.818 13.6041 138.601 12.8206 138.601 11.8541V5.13737C138.601 4.17088 137.818 3.38737 136.851 3.38737H126.316C125.626 3.38737 125.066 2.82773 125.066 2.13737ZM22.0462 5.13738C22.0462 4.17088 22.8297 3.38737 23.7962 3.38737H32.331C32.7452 3.38737 33.081 3.72316 33.081 4.13737V13.6721C33.081 14.0864 32.7452 14.4221 32.331 14.4221H23.7962C22.8297 14.4221 22.0462 13.6386 22.0462 12.6721V5.13738ZM23.7962 0.887374C21.449 0.887374 19.5462 2.79017 19.5462 5.13738V12.6721C19.5462 15.0194 21.449 16.9221 23.7962 16.9221H32.331C32.7742 16.9221 33.1968 16.8334 33.5818 16.6727C33.7906 16.8294 34.05 16.9221 34.3311 16.9221C35.0215 16.9221 35.5811 16.3625 35.5811 15.6721V2.13737C35.5811 1.44702 35.0215 0.887374 34.3311 0.887374C34.05 0.887374 33.7906 0.980164 33.5818 1.13679C33.1968 0.97611 32.7742 0.887374 32.331 0.887374H23.7962ZM90.6458 3.38737C89.6793 3.38737 88.8958 4.17088 88.8958 5.13738V12.6721C88.8958 13.6386 89.6793 14.4221 90.6458 14.4221H101.181C101.871 14.4221 102.431 14.9818 102.431 15.6721C102.431 16.3625 101.871 16.9221 101.181 16.9221H90.6458C88.2986 16.9221 86.3958 15.0194 86.3958 12.6721V5.13738C86.3958 2.79017 88.2986 0.887374 90.6458 0.887374H99.1806C100.975 0.887374 102.431 2.34245 102.431 4.13737V7.87153C102.431 9.66646 100.975 11.1215 99.1806 11.1215H93.4464C92.7561 11.1215 92.1964 10.5619 92.1964 9.87153C92.1964 9.18117 92.7561 8.62153 93.4464 8.62153H99.1806C99.5948 8.62153 99.9306 8.28574 99.9306 7.87153V4.13737C99.9306 3.72316 99.5948 3.38737 99.1806 3.38737H90.6458ZM146.902 5.13738C146.902 4.17088 147.685 3.38737 148.652 3.38737H157.187C157.601 3.38737 157.937 3.72316 157.937 4.13737V7.87153C157.937 8.28574 157.601 8.62153 157.187 8.62153H151.453C150.762 8.62153 150.203 9.18117 150.203 9.87153C150.203 10.5619 150.762 11.1215 151.453 11.1215H157.187C158.982 11.1215 160.437 9.66646 160.437 7.87153V4.13737C160.437 2.34245 158.982 0.887374 157.187 0.887374H148.652C146.305 0.887374 144.402 2.79017 144.402 5.13738V12.6721C144.402 15.0194 146.305 16.9221 148.652 16.9221H159.187C159.877 16.9221 160.437 16.3625 160.437 15.6721C160.437 14.9818 159.877 14.4221 159.187 14.4221H148.652C147.685 14.4221 146.902 13.6386 146.902 12.6721V5.13738ZM118.582 0.887367C117.892 0.887367 117.332 1.44701 117.332 2.13737V5.79395C117.332 6.11265 117.131 6.39655 116.83 6.50184L113.749 7.58038L110.667 6.50184C110.366 6.39655 110.165 6.11265 110.165 5.79395V2.13737C110.165 1.44701 109.605 0.887367 108.915 0.887367C108.224 0.887367 107.665 1.44701 107.665 2.13737V5.79395C107.665 7.17501 108.538 8.40525 109.841 8.86148L109.965 8.90473L109.841 8.94802C108.537 9.40426 107.665 10.6345 107.665 12.0156V15.6721C107.665 16.3625 108.224 16.9221 108.915 16.9221C109.605 16.9221 110.165 16.3625 110.165 15.6721V12.0156C110.165 11.6969 110.366 11.413 110.667 11.3077L113.749 10.2291L116.83 11.3077C117.131 11.413 117.332 11.6969 117.332 12.0156V15.6721C117.332 16.3625 117.892 16.9221 118.582 16.9221C119.273 16.9221 119.832 16.3625 119.832 15.6721V12.0156C119.832 10.6345 118.96 9.40426 117.656 8.94802L117.532 8.90473L117.656 8.86148C118.959 8.40525 119.832 7.17501 119.832 5.79395V2.13737C119.832 1.44701 119.273 0.887367 118.582 0.887367ZM182.759 0.210754C183.45 0.210754 184.009 0.770398 184.009 1.46075V3.13228H185.681C186.371 3.13228 186.931 3.69193 186.931 4.38228C186.931 5.07264 186.371 5.63228 185.681 5.63228H184.009V14.0684C184.009 14.4826 184.345 14.8184 184.759 14.8184H187.142C187.832 14.8184 188.392 15.378 188.392 16.0684C188.392 16.7588 187.832 17.3184 187.142 17.3184H184.759C182.964 17.3184 181.509 15.8633 181.509 14.0684V5.63228H179.838C179.147 5.63228 178.588 5.07264 178.588 4.38228C178.588 3.69193 179.147 3.13228 179.838 3.13228H181.509V1.46075C181.509 0.770398 182.069 0.210754 182.759 0.210754Z" fill="url(#paint0_linear)"/>
<defs>
<linearGradient id="paint0_linear" x1="176.061" y1="9.87197" x2="-0.461045" y2="9.87195" gradientUnits="userSpaceOnUse">
<stop stop-color="#1E46D4"/>
<stop offset="0.338542" stop-color="#EE6C6C"/>
<stop offset="0.557292" stop-color="#9B4CA4"/>
<stop offset="0.75" stop-color="#3222EB"/>
<stop offset="1" stop-color="#8A80FF"/>
</linearGradient>
</defs>
</svg>
