<svg width="38" height="35" viewBox="0 0 38 35" fill="none" xmlns="http://www.w3.org/2000/svg">
<path d="M30.053 34.1728L7.9427 34.1728C4.10939 34.1728 1 31.1709 1 27.47L1 7.70277C1 4.00193 4.10939 1 7.9427 1L30.0573 1C33.8907 1 37 4.00193 37 7.70277L37 27.47C36.9956 31.1709 33.8863 34.1728 30.053 34.1728Z" stroke="#1F1F1F" stroke-miterlimit="10"/>
<path d="M21.0062 13.0469V10.9809C21.0062 10.6708 21.0205 10.4305 21.0495 10.2608C21.0784 10.0909 21.1441 9.92372 21.2461 9.75871C21.348 9.5938 21.513 9.47996 21.7408 9.41687C21.9689 9.35368 22.272 9.32218 22.6504 9.32218L24.7163 9.32218V5.19031L21.4136 5.19031C19.5026 5.19031 18.1301 5.6437 17.2958 6.55049C16.4617 7.45749 16.0447 8.79347 16.0447 10.5589V13.0468L13.571 13.0468L13.571 17.179L16.0446 17.179L16.0446 29.1678L21.0062 29.1678L21.0062 17.1791L24.3087 17.1791L24.7452 13.0469L21.0062 13.0469Z" fill="#1F1F1F"/>
</svg>
