<svg width="38" height="35" viewBox="0 0 38 35" fill="none" xmlns="http://www.w3.org/2000/svg">
<path d="M30.053 34.1728L7.9427 34.1728C4.10939 34.1728 1 31.1709 1 27.47L1 7.70277C1 4.00193 4.10939 1 7.9427 1L30.0573 1C33.8907 1 37 4.00193 37 7.70277L37 27.47C36.9956 31.1709 33.8863 34.1728 30.053 34.1728Z" stroke="#1F1F1F" stroke-miterlimit="10"/>
<path d="M28 19.4192L28 25.9959L24.1414 25.9959L24.1414 19.8618C24.1414 18.319 23.5847 17.2684 22.1869 17.2684C21.1197 17.2684 20.4878 17.9757 20.2074 18.6623C20.107 18.9063 20.0777 19.2496 20.0777 19.5929L20.0777 26L16.219 26C16.219 26 16.2692 15.6056 16.219 14.5302L20.0777 14.5302L20.0777 16.1557C20.0693 16.1681 20.0609 16.1805 20.0525 16.1929H20.0777V16.1557C20.5924 15.374 21.5048 14.2613 23.5555 14.2613C26.0958 14.2572 28 15.8993 28 19.4192ZM12.1846 9C10.8621 9 10 9.8562 10 10.9813C10 12.0815 10.837 12.9625 12.1344 12.9625H12.1595C13.5071 12.9625 14.3441 12.0815 14.3441 10.9813C14.3148 9.8562 13.5029 9 12.1846 9ZM10.2302 26L14.0888 26L14.0888 14.526L10.2302 14.526L10.2302 26Z" fill="#1F1F1F"/>
</svg>
