<svg width="38" height="35" viewBox="0 0 38 35" fill="none" xmlns="http://www.w3.org/2000/svg">
<path d="M30.0984 34.2247L7.95357 34.2247C4.11426 34.2247 1.00001 31.2181 1 27.5114L1 7.71325C1 4.00663 4.11425 1 7.95356 1L30.1028 1C33.9421 1 37.0563 4.00663 37.0563 7.71325L37.0563 27.5114C37.052 31.2181 33.9377 34.2247 30.0984 34.2247Z" stroke="#1F1F1F" stroke-miterlimit="10"/>
<path d="M28.1067 12.1745C27.6568 12.2926 27.303 12.2757 27.303 12.2757L27.3161 12.1913C27.7354 11.8666 28.7881 10.8757 28.9279 10.4118C28.989 10.2094 28.9148 10.1419 28.9148 10.1335L27.5651 10.6859L26.4382 11.1751C25.6607 10.3781 24.4814 9.87207 23.1623 9.87207C20.8168 9.87207 18.9168 11.4745 18.9168 13.4522C18.9168 13.8148 18.9736 14.4727 19.0915 14.8016C19.0915 14.907 19.0959 14.6962 19.0915 14.8016C17.5803 14.7636 15.6453 14.1648 13.9244 13.3215C10.5262 11.66 10.3122 10.5088 10.3122 10.5088C9.77935 11.057 9.50418 12.866 10.0458 14.2871C10.3908 15.198 11.5833 16.0118 11.5833 16.0118C11.5833 16.0118 11.0504 16.0203 10.4913 15.8389C9.93223 15.6576 9.72257 15.4763 9.72257 15.4763C9.39062 16.2564 10.0545 17.6522 11.2076 18.6516C11.8759 19.2335 13.1033 19.6004 13.1033 19.6004L11.1902 19.651C11.081 21.4474 15.0906 22.5142 15.0906 22.5142C13.9157 23.3871 12.5529 23.9185 11.0941 23.9185C10.3384 23.9185 9.60464 23.8088 8.91016 23.6106C10.8407 25.1456 13.3217 26.204 16.0166 26.0691C23.1711 25.7064 27.2069 19.7691 27.3991 13.9371L27.4079 13.9498C27.4079 13.9498 27.7442 13.7895 28.4605 13.098C29.1768 12.4064 29.6223 11.5968 29.6223 11.5968C29.6223 11.5968 28.5566 12.0522 28.1067 12.1745Z" fill="#1F1F1F"/>
<path d="M28.9191 10.1377C28.9278 10.2473 28.9191 10.1461 28.9191 10.1377V10.1377Z" fill="white"/>
</svg>
