<svg width="37" height="35" viewBox="0 0 37 35" fill="none" xmlns="http://www.w3.org/2000/svg">
<path fill-rule="evenodd" clip-rule="evenodd" d="M11.5714 6L13.4285 11.5385L13.4285 15.2308L14.6666 15.2308L14.6666 11.5385L16.5237 6L15.2857 6L14.0476 9.69231L12.8095 6L11.5714 6ZM18.3809 8.46154C17.7207 8.46154 17.3967 8.5649 16.9929 8.89423C16.606 9.21875 16.4996 9.46875 16.5237 10.3077L16.5237 13.3846C16.5237 13.9976 16.6253 14.4014 16.9977 14.7596C17.3846 15.1178 17.7498 15.2308 18.3809 15.2308C19.041 15.2308 19.4014 15.1178 19.7737 14.7596C20.1607 14.4159 20.238 13.9976 20.238 13.3846L20.238 10.3077C20.238 9.76442 20.1413 9.25 19.7665 8.90625C19.3796 8.55289 18.9806 8.46154 18.3809 8.46154ZM21.4761 8.46154L21.4761 14C21.4761 14.5986 22.0831 15.2308 22.7142 15.2308C23.3454 15.2308 23.6791 14.9159 23.9523 14.6154L23.9523 15.2308L25.1904 15.2308L25.1904 8.46154L23.9523 8.46154L23.9523 13.3846C23.9451 13.8053 23.4469 14 23.3333 14C23.2051 14 22.7142 13.9736 22.7142 13.3846L22.7142 8.46154L21.4761 8.46154ZM18.3809 9.69231C18.5671 9.69231 18.9999 9.6899 18.9999 10.3077L18.9999 13.3846C18.9999 13.9808 18.5816 14 18.3809 14C18.1947 14 17.7618 13.9928 17.7618 13.3846L17.7618 10.3077C17.7618 9.80529 18.0303 9.69231 18.3809 9.69231ZM9.71423 16.4615C7.48952 16.4615 5.99994 17.9279 5.99994 20.1538L5.99994 26C5.99994 28.226 7.48952 30 9.71423 30L28.2857 30C30.5104 30 31.9999 28.5337 31.9999 26.3077L31.9999 20.1538C31.9999 17.9279 30.5104 16.4615 28.2857 16.4615L9.71423 16.4615ZM10.9523 18.9231L14.6666 18.9231L14.6666 20.1538L13.4285 20.1538L13.4285 27.5385L12.1904 27.5385L12.1904 20.1538L10.9523 20.1538L10.9523 18.9231ZM19.619 18.9231L20.8571 18.9231L20.8571 21.3846C20.9998 21.1635 21.2126 20.988 21.4157 20.8894C21.614 20.7885 21.8147 20.7308 22.0178 20.7308C22.4192 20.7308 22.7336 20.875 22.9488 21.1442C23.164 21.4159 23.3333 21.7764 23.3333 22.3077L23.3333 26C23.3333 26.4567 23.1785 26.7404 22.9754 26.9832C22.7771 27.226 22.4797 27.5337 22.0952 27.5385C21.4447 27.5457 21.0965 27.1995 20.8571 26.9231L20.8571 27.5385L19.619 27.5385L19.619 18.9231ZM14.6666 20.7692L15.9047 20.7692L15.9047 25.6923C15.9047 25.8341 16.0716 26.3125 16.5237 26.3077C17.0267 26.3029 17.0316 25.8365 17.1428 25.6923L17.1428 20.7692L18.3809 20.7692L18.3809 27.5385L17.1428 27.5385L17.1428 26.9231C16.9131 27.1923 16.7946 27.2764 16.5358 27.4038C16.2795 27.5481 16.0184 27.5385 15.7765 27.5385C15.4767 27.5385 15.1357 27.2692 14.9761 27.0673C14.8335 26.8822 14.6666 26.6923 14.6666 26.3077L14.6666 20.7692ZM25.9328 20.7692C26.5204 20.7692 26.9339 20.8942 27.2458 21.2212C27.565 21.5481 27.6666 21.9303 27.6666 22.5457L27.6666 24.4615L25.1904 24.4615L25.1904 25.4135C25.1904 25.7572 25.2364 25.976 25.3258 26.1058C25.4105 26.2476 25.5822 26.3101 25.8095 26.3077C26.061 26.3053 26.2206 26.2548 26.3052 26.1418C26.3922 26.0409 26.4285 25.7548 26.4285 25.3846L26.4285 25.0769L27.6666 25.0769L27.6666 25.4423C27.6666 26.113 27.6134 26.613 27.2797 26.9399C26.9653 27.2837 26.4745 27.4423 25.8312 27.4423C25.2436 27.4423 24.7842 27.2692 24.4553 26.9135C24.1264 26.5577 23.9547 26.0697 23.9547 25.4423L23.9547 22.5457C23.9547 21.988 24.1506 21.5745 24.5109 21.2067C24.8011 20.9111 25.3452 20.7692 25.9328 20.7692ZM21.4761 21.6923C21.1352 21.6923 20.8619 21.9976 20.8571 22.3077L20.8571 26C20.8619 26.1779 21.1352 26.3077 21.4761 26.3077C21.8171 26.3077 22.0952 26.0457 22.0952 25.7067L22.0952 22.6154C22.0952 22 21.8171 21.6923 21.4761 21.6923ZM25.8095 22C25.4685 22 25.1953 22.2861 25.1904 22.6154L25.1904 23.2308L26.4285 23.2308L26.4285 22.6154C26.4285 22.238 26.1504 22 25.8095 22Z" fill="black"/>
<path d="M29.3326 34.2205L7.77058 34.2205C4.0323 34.2205 1.00001 31.2139 1 27.5072L1 7.71325C1 4.00663 4.0323 1 7.77057 1L29.3326 1C33.0709 1 36.1032 4.00663 36.1032 7.71325L36.1032 27.5114C36.099 31.2181 33.0709 34.2205 29.3326 34.2205Z" stroke="#1F1F1F" stroke-miterlimit="10"/>
</svg>
